<mxfile host="Electron" agent="Mozilla/5.0 (Windows NT 10.0; Win64; x64) AppleWebKit/537.36 (KHTML, like Gecko) draw.io/28.0.6 Chrome/138.0.7204.100 Electron/37.2.3 Safari/537.36" version="28.0.6">
  <diagram name="Page-1" id="Qt6RBxbnBxlLBdyu2kXS">
    <mxGraphModel dx="3455" dy="1565" grid="1" gridSize="10" guides="1" tooltips="1" connect="1" arrows="1" fold="1" page="1" pageScale="1" pageWidth="850" pageHeight="1100" math="0" shadow="0">
      <root>
        <mxCell id="0" />
        <mxCell id="1" parent="0" />
        <mxCell id="HriUhH6ggm_6CILNUc8W-28" value="" style="rounded=1;whiteSpace=wrap;html=1;dashed=1;dashPattern=8 8;fillColor=none;" vertex="1" parent="1">
          <mxGeometry x="478.5" y="150" width="700" height="240" as="geometry" />
        </mxCell>
        <mxCell id="HriUhH6ggm_6CILNUc8W-7" style="edgeStyle=orthogonalEdgeStyle;rounded=0;orthogonalLoop=1;jettySize=auto;html=1;" edge="1" parent="1" source="HriUhH6ggm_6CILNUc8W-1" target="HriUhH6ggm_6CILNUc8W-6">
          <mxGeometry relative="1" as="geometry" />
        </mxCell>
        <mxCell id="HriUhH6ggm_6CILNUc8W-1" value="Хранилище данных&lt;div&gt;[Container]&lt;/div&gt;&lt;div&gt;Data Warehouse&lt;/div&gt;" style="shape=cylinder3;whiteSpace=wrap;html=1;boundedLbl=1;backgroundOutline=1;size=15;fillColor=#d5e8d4;strokeColor=#82b366;" vertex="1" parent="1">
          <mxGeometry x="132.5" y="1330" width="180" height="100" as="geometry" />
        </mxCell>
        <mxCell id="HriUhH6ggm_6CILNUc8W-2" value="Портал самообслуживания&lt;div&gt;[Container: React, Node.js, Spring Boot]&lt;/div&gt;&lt;div&gt;Витрина для работы с данными&lt;/div&gt;" style="rounded=1;whiteSpace=wrap;html=1;fillColor=#d5e8d4;strokeColor=#82b366;" vertex="1" parent="1">
          <mxGeometry x="137.5" y="450" width="175" height="110" as="geometry" />
        </mxCell>
        <mxCell id="HriUhH6ggm_6CILNUc8W-9" style="edgeStyle=orthogonalEdgeStyle;rounded=0;orthogonalLoop=1;jettySize=auto;html=1;entryX=0.5;entryY=0;entryDx=0;entryDy=0;" edge="1" parent="1" source="HriUhH6ggm_6CILNUc8W-3" target="HriUhH6ggm_6CILNUc8W-5">
          <mxGeometry relative="1" as="geometry">
            <mxPoint x="681" y="340" as="targetPoint" />
            <Array as="points" />
          </mxGeometry>
        </mxCell>
        <mxCell id="HriUhH6ggm_6CILNUc8W-11" value="Rest API&lt;div&gt;[HTTPS]&lt;/div&gt;" style="edgeLabel;html=1;align=center;verticalAlign=middle;resizable=0;points=[];" vertex="1" connectable="0" parent="HriUhH6ggm_6CILNUc8W-9">
          <mxGeometry x="-0.0878" relative="1" as="geometry">
            <mxPoint as="offset" />
          </mxGeometry>
        </mxCell>
        <mxCell id="HriUhH6ggm_6CILNUc8W-3" value="ИИ сервисы&lt;div&gt;[Software system: Python]&lt;/div&gt;&lt;div&gt;Отдельная компания, предоставляющая ИИ сервисы&lt;/div&gt;" style="rounded=1;whiteSpace=wrap;html=1;fillColor=#fff2cc;strokeColor=#d6b656;" vertex="1" parent="1">
          <mxGeometry x="519.5" y="210" width="180" height="110" as="geometry" />
        </mxCell>
        <mxCell id="HriUhH6ggm_6CILNUc8W-10" style="edgeStyle=orthogonalEdgeStyle;rounded=0;orthogonalLoop=1;jettySize=auto;html=1;entryX=0.75;entryY=0;entryDx=0;entryDy=0;exitX=0.5;exitY=1;exitDx=0;exitDy=0;" edge="1" parent="1" source="HriUhH6ggm_6CILNUc8W-4" target="HriUhH6ggm_6CILNUc8W-5">
          <mxGeometry relative="1" as="geometry">
            <mxPoint x="890.94" y="341.4399999999998" as="targetPoint" />
            <Array as="points">
              <mxPoint x="819" y="420" />
              <mxPoint x="674" y="420" />
            </Array>
          </mxGeometry>
        </mxCell>
        <mxCell id="HriUhH6ggm_6CILNUc8W-12" value="Rest API&lt;div&gt;[HTTPS]&lt;/div&gt;" style="edgeLabel;html=1;align=center;verticalAlign=middle;resizable=0;points=[];" vertex="1" connectable="0" parent="HriUhH6ggm_6CILNUc8W-10">
          <mxGeometry x="-0.0949" y="-1" relative="1" as="geometry">
            <mxPoint x="-18" y="1" as="offset" />
          </mxGeometry>
        </mxCell>
        <mxCell id="HriUhH6ggm_6CILNUc8W-4" value="Финтех сервисы&lt;div&gt;[Software system: Golang, Java]&lt;/div&gt;&lt;div&gt;Отдельная компания, предоставляющая финтех сервисы&lt;/div&gt;" style="rounded=1;whiteSpace=wrap;html=1;fillColor=#fff2cc;strokeColor=#d6b656;" vertex="1" parent="1">
          <mxGeometry x="729.5" y="210" width="180" height="110" as="geometry" />
        </mxCell>
        <mxCell id="HriUhH6ggm_6CILNUc8W-5" value="Шина данных&lt;div&gt;[Container: Apache Camel]&lt;/div&gt;&lt;div&gt;Интеграционная шина&lt;/div&gt;" style="rounded=1;whiteSpace=wrap;html=1;fillColor=#dae8fc;strokeColor=#6c8ebf;" vertex="1" parent="1">
          <mxGeometry x="392.5" y="510" width="375" height="60" as="geometry" />
        </mxCell>
        <mxCell id="HriUhH6ggm_6CILNUc8W-74" style="edgeStyle=orthogonalEdgeStyle;rounded=0;orthogonalLoop=1;jettySize=auto;html=1;" edge="1" parent="1" source="HriUhH6ggm_6CILNUc8W-6" target="HriUhH6ggm_6CILNUc8W-72">
          <mxGeometry relative="1" as="geometry" />
        </mxCell>
        <mxCell id="HriUhH6ggm_6CILNUc8W-6" value="Анализ данных&lt;div&gt;[Container: Power BI]&lt;/div&gt;&lt;div&gt;Сервис для анализа и визуализации данных&lt;/div&gt;" style="rounded=1;whiteSpace=wrap;html=1;fillColor=#d5e8d4;strokeColor=#82b366;" vertex="1" parent="1">
          <mxGeometry x="132.5" y="1150" width="180" height="110" as="geometry" />
        </mxCell>
        <mxCell id="HriUhH6ggm_6CILNUc8W-13" style="edgeStyle=orthogonalEdgeStyle;rounded=0;orthogonalLoop=1;jettySize=auto;html=1;" edge="1" parent="1" source="HriUhH6ggm_6CILNUc8W-2" target="HriUhH6ggm_6CILNUc8W-17">
          <mxGeometry relative="1" as="geometry">
            <mxPoint x="317.5" y="590" as="targetPoint" />
            <Array as="points" />
          </mxGeometry>
        </mxCell>
        <mxCell id="HriUhH6ggm_6CILNUc8W-75" value="Rest API&lt;div&gt;[HTTPS]&lt;/div&gt;" style="edgeLabel;html=1;align=center;verticalAlign=middle;resizable=0;points=[];" vertex="1" connectable="0" parent="HriUhH6ggm_6CILNUc8W-13">
          <mxGeometry x="-0.0319" relative="1" as="geometry">
            <mxPoint as="offset" />
          </mxGeometry>
        </mxCell>
        <mxCell id="HriUhH6ggm_6CILNUc8W-15" style="edgeStyle=orthogonalEdgeStyle;rounded=0;orthogonalLoop=1;jettySize=auto;html=1;entryX=1;entryY=0.5;entryDx=0;entryDy=0;" edge="1" parent="1" source="HriUhH6ggm_6CILNUc8W-14" target="HriUhH6ggm_6CILNUc8W-5">
          <mxGeometry relative="1" as="geometry">
            <mxPoint x="1110.9899999999998" y="339.81999999999994" as="targetPoint" />
            <Array as="points">
              <mxPoint x="1040" y="540" />
            </Array>
          </mxGeometry>
        </mxCell>
        <mxCell id="HriUhH6ggm_6CILNUc8W-16" value="Rest API&lt;div&gt;[HTTPS]&lt;/div&gt;" style="edgeLabel;html=1;align=center;verticalAlign=middle;resizable=0;points=[];" vertex="1" connectable="0" parent="HriUhH6ggm_6CILNUc8W-15">
          <mxGeometry x="-0.0786" y="-1" relative="1" as="geometry">
            <mxPoint x="1" y="-58" as="offset" />
          </mxGeometry>
        </mxCell>
        <mxCell id="HriUhH6ggm_6CILNUc8W-14" value="Портал оператора&lt;div&gt;[Container: React, Node.js, Spring Boot]&lt;/div&gt;&lt;div&gt;Клиентский интерфейс оператора&lt;/div&gt;" style="rounded=1;whiteSpace=wrap;html=1;fillColor=#fff2cc;strokeColor=#d6b656;" vertex="1" parent="1">
          <mxGeometry x="952.5" y="210" width="175" height="110" as="geometry" />
        </mxCell>
        <mxCell id="HriUhH6ggm_6CILNUc8W-35" style="edgeStyle=orthogonalEdgeStyle;rounded=0;orthogonalLoop=1;jettySize=auto;html=1;entryX=0.5;entryY=0;entryDx=0;entryDy=0;" edge="1" parent="1" source="HriUhH6ggm_6CILNUc8W-17" target="HriUhH6ggm_6CILNUc8W-34">
          <mxGeometry relative="1" as="geometry">
            <Array as="points">
              <mxPoint x="222.5" y="730" />
              <mxPoint x="222.5" y="730" />
            </Array>
          </mxGeometry>
        </mxCell>
        <mxCell id="HriUhH6ggm_6CILNUc8W-17" value="API Gateway&lt;div&gt;[Container: Java]&lt;/div&gt;&lt;div&gt;API Gateway&lt;/div&gt;" style="rounded=1;whiteSpace=wrap;html=1;fillColor=#d5e8d4;strokeColor=#82b366;" vertex="1" parent="1">
          <mxGeometry x="140" y="630" width="170" height="60" as="geometry" />
        </mxCell>
        <mxCell id="HriUhH6ggm_6CILNUc8W-76" style="edgeStyle=orthogonalEdgeStyle;rounded=0;orthogonalLoop=1;jettySize=auto;html=1;startArrow=classic;startFill=1;" edge="1" parent="1" source="HriUhH6ggm_6CILNUc8W-19" target="HriUhH6ggm_6CILNUc8W-5">
          <mxGeometry relative="1" as="geometry" />
        </mxCell>
        <mxCell id="HriUhH6ggm_6CILNUc8W-77" style="edgeStyle=orthogonalEdgeStyle;rounded=0;orthogonalLoop=1;jettySize=auto;html=1;" edge="1" parent="1" source="HriUhH6ggm_6CILNUc8W-19" target="HriUhH6ggm_6CILNUc8W-31">
          <mxGeometry relative="1" as="geometry" />
        </mxCell>
        <mxCell id="HriUhH6ggm_6CILNUc8W-19" value="" style="shape=cylinder3;whiteSpace=wrap;html=1;boundedLbl=1;backgroundOutline=1;size=15;rotation=-90;fillColor=#f5f5f5;fontColor=#333333;strokeColor=#666666;" vertex="1" parent="1">
          <mxGeometry x="535" y="600" width="90" height="210" as="geometry" />
        </mxCell>
        <mxCell id="HriUhH6ggm_6CILNUc8W-20" value="Сервис асинхронной коммуникации&lt;div&gt;[Container: Kafka]&lt;/div&gt;" style="text;html=1;align=center;verticalAlign=middle;whiteSpace=wrap;rounded=0;" vertex="1" parent="1">
          <mxGeometry x="522.5" y="690" width="130" height="30" as="geometry" />
        </mxCell>
        <mxCell id="HriUhH6ggm_6CILNUc8W-24" style="edgeStyle=orthogonalEdgeStyle;rounded=0;orthogonalLoop=1;jettySize=auto;html=1;entryX=0;entryY=0.5;entryDx=0;entryDy=0;startArrow=classic;startFill=1;" edge="1" parent="1" source="HriUhH6ggm_6CILNUc8W-23" target="HriUhH6ggm_6CILNUc8W-34">
          <mxGeometry relative="1" as="geometry" />
        </mxCell>
        <mxCell id="HriUhH6ggm_6CILNUc8W-23" value="Кеширование&lt;div&gt;[Container: Redis]&lt;/div&gt;" style="rounded=1;whiteSpace=wrap;html=1;fillColor=#f8cecc;strokeColor=#b85450;" vertex="1" parent="1">
          <mxGeometry x="-57.5" y="805" width="120" height="60" as="geometry" />
        </mxCell>
        <mxCell id="HriUhH6ggm_6CILNUc8W-26" value="Хранилище данных&lt;div&gt;[Container: Amazon S3]&lt;/div&gt;&lt;div&gt;Хранилище структурированных, полуструктурированных и неструктурированных данных&lt;/div&gt;" style="shape=cylinder3;whiteSpace=wrap;html=1;boundedLbl=1;backgroundOutline=1;size=15;fillColor=#d5e8d4;strokeColor=#82b366;" vertex="1" parent="1">
          <mxGeometry x="738.5" y="957.5" width="180" height="165" as="geometry" />
        </mxCell>
        <mxCell id="HriUhH6ggm_6CILNUc8W-27" value="Уровень метаданных&lt;br&gt;&lt;div&gt;[Container: Apache Iceberg]&lt;/div&gt;&lt;div&gt;Единый каталог, который предоставляет метаданные и позволяет управлять данными&lt;/div&gt;" style="rounded=1;whiteSpace=wrap;html=1;fillColor=#d5e8d4;strokeColor=#82b366;" vertex="1" parent="1">
          <mxGeometry x="490" y="985" width="180" height="110" as="geometry" />
        </mxCell>
        <mxCell id="HriUhH6ggm_6CILNUc8W-29" value="Внешние сервисы" style="text;html=1;align=center;verticalAlign=middle;whiteSpace=wrap;rounded=0;" vertex="1" parent="1">
          <mxGeometry x="498.5" y="160" width="130" height="30" as="geometry" />
        </mxCell>
        <mxCell id="HriUhH6ggm_6CILNUc8W-30" style="edgeStyle=orthogonalEdgeStyle;rounded=0;orthogonalLoop=1;jettySize=auto;html=1;startArrow=classicThin;startFill=1;endArrow=none;endFill=0;" edge="1" parent="1" source="HriUhH6ggm_6CILNUc8W-27" target="HriUhH6ggm_6CILNUc8W-31">
          <mxGeometry relative="1" as="geometry">
            <mxPoint x="710" y="1009.94" as="targetPoint" />
            <Array as="points" />
          </mxGeometry>
        </mxCell>
        <mxCell id="HriUhH6ggm_6CILNUc8W-37" style="edgeStyle=orthogonalEdgeStyle;rounded=0;orthogonalLoop=1;jettySize=auto;html=1;" edge="1" parent="1" source="HriUhH6ggm_6CILNUc8W-31" target="HriUhH6ggm_6CILNUc8W-26">
          <mxGeometry relative="1" as="geometry" />
        </mxCell>
        <mxCell id="HriUhH6ggm_6CILNUc8W-31" value="Сервис передачи данных&lt;div&gt;[Container: Apache Flink]&lt;/div&gt;&lt;div&gt;ETL&lt;/div&gt;" style="rounded=1;whiteSpace=wrap;html=1;fillColor=#d5e8d4;strokeColor=#82b366;" vertex="1" parent="1">
          <mxGeometry x="490" y="822.5" width="180" height="95" as="geometry" />
        </mxCell>
        <mxCell id="HriUhH6ggm_6CILNUc8W-78" style="edgeStyle=orthogonalEdgeStyle;rounded=0;orthogonalLoop=1;jettySize=auto;html=1;" edge="1" parent="1" source="HriUhH6ggm_6CILNUc8W-34" target="HriUhH6ggm_6CILNUc8W-72">
          <mxGeometry relative="1" as="geometry" />
        </mxCell>
        <mxCell id="HriUhH6ggm_6CILNUc8W-34" value="Бэкенд для портала самообслуживания&lt;div&gt;[Container: Spring Boot]&lt;/div&gt;&lt;div&gt;Бэкенд-сервис для агрегации данных&lt;/div&gt;" style="rounded=1;whiteSpace=wrap;html=1;fillColor=#d5e8d4;strokeColor=#82b366;" vertex="1" parent="1">
          <mxGeometry x="132.5" y="780" width="180" height="110" as="geometry" />
        </mxCell>
        <mxCell id="HriUhH6ggm_6CILNUc8W-73" style="edgeStyle=orthogonalEdgeStyle;rounded=0;orthogonalLoop=1;jettySize=auto;html=1;" edge="1" parent="1" source="HriUhH6ggm_6CILNUc8W-72" target="HriUhH6ggm_6CILNUc8W-27">
          <mxGeometry relative="1" as="geometry" />
        </mxCell>
        <mxCell id="HriUhH6ggm_6CILNUc8W-72" value="&lt;div&gt;Query engine&lt;/div&gt;&lt;div&gt;[Container: Trino]&lt;/div&gt;&lt;div&gt;SQL-движок для чтения Iceberg&lt;/div&gt;" style="rounded=1;whiteSpace=wrap;html=1;fillColor=#d5e8d4;strokeColor=#82b366;" vertex="1" parent="1">
          <mxGeometry x="132.5" y="985" width="180" height="110" as="geometry" />
        </mxCell>
      </root>
    </mxGraphModel>
  </diagram>
</mxfile>
